<?xml version="1.0" encoding="UTF-8"?>
<svg width="130px" height="30px" viewBox="0 0 130 30" version="1.1" xmlns="http://www.w3.org/2000/svg" xmlns:xlink="http://www.w3.org/1999/xlink">
    <title>Logo</title>
    <g id="Symbols" stroke="none" stroke-width="1" fill="none" fill-rule="evenodd">
        <g id="Navigation" transform="translate(-80.000000, -35.000000)">
            <g id="Logo" transform="translate(80.000000, 35.000000)">
                <path d="M22.8,24 L22.8,14.37 L25.05,14.37 L25.05,9.87 L22.8,9.87 L22.8,1.2 L17.16,1.2 L17.16,24 L22.8,24 Z M2.1,23.1 C4.56,23.1 6.735,22.4 8.625,21 C10.515,19.6 11.985,17.605 13.035,15.015 C14.085,12.425 14.61,9.4 14.61,5.94 L14.61,1.44 L1.8,1.44 L1.8,5.94 L8.97,5.94 C8.97,9.04 8.57,11.535 7.77,13.425 C6.97,15.315 6,16.65 4.86,17.43 C3.72,18.21 2.6,18.6 1.5,18.6 L2.1,23.1 Z M39.66,23.1 L40.86,18.45 C39.98,18.35 39.2,17.87 38.52,17.01 C37.84,16.15 37.295,14.92 36.885,13.32 C36.475,11.72 36.25,9.8 36.21,7.56 L36.21,7.56 L40.26,7.56 L40.26,3 L36.36,3 L36.36,0.6 L30.75,0.6 L30.75,3 L26.85,3 L26.85,7.56 L30.9,7.56 C30.86,11.08 30.465,13.74 29.715,15.54 C28.965,17.34 27.81,18.31 26.25,18.45 L26.25,18.45 L27.45,23.1 C28.53,23.02 29.61,22.63 30.69,21.93 C31.77,21.23 32.73,20.2 33.57,18.84 C34.39,20.2 35.34,21.23 36.42,21.93 C37.5,22.63 38.58,23.02 39.66,23.1 L39.66,23.1 Z M47.85,24 L47.85,1.2 L42.21,1.2 L42.21,24 L47.85,24 Z" id="가치" fill="#015AA8" fill-rule="nonzero"></path>
                <rect id="Rectangle" x="0" y="0" width="130" height="30"></rect>
                <path d="M65.31,17.5 L66.51,13 C65.29,13 64.26,12.555 63.42,11.665 C62.58,10.775 62.16,9.45 62.16,7.69 L62.16,7.69 L62.16,5.2 L56.55,5.2 L56.55,7.69 C56.55,9.45 56.13,10.775 55.29,11.665 C54.45,12.555 53.42,13 52.2,13 L52.2,13 L53.4,17.5 C54.52,17.5 55.595,17.285 56.625,16.855 C57.655,16.425 58.57,15.81 59.37,15.01 C60.15,15.81 61.055,16.425 62.085,16.855 C63.115,17.285 64.19,17.5 65.31,17.5 L65.31,17.5 Z M73.8,17.5 L73.8,13.45 L76.05,13.45 L76.05,9.25 L73.8,9.25 L73.8,5.2 L68.16,5.2 L68.16,17.5 L73.8,17.5 Z M73.8,28 L73.8,18.55 L68.19,18.55 L68.19,19.66 L59.04,19.66 L59.04,18.55 L53.4,18.55 L53.4,28 L73.8,28 Z M68.19,24.4 L59.04,24.4 L59.04,23.26 L68.19,23.26 L68.19,24.4 Z M98.85,28 L98.85,5.2 L93.21,5.2 L93.21,28 L98.85,28 Z M90.66,27.1 L91.86,22.3 C90.98,22.2 90.185,21.66 89.475,20.68 C88.765,19.7 88.21,18.36 87.81,16.66 C87.41,14.96 87.21,13.03 87.21,10.87 L87.21,10.87 L87.21,5.5 L81.9,5.5 L81.9,10.87 C81.9,14.31 81.52,17.04 80.76,19.06 C80,21.08 78.83,22.16 77.25,22.3 L77.25,22.3 L78.45,27.1 C79.53,27.02 80.61,26.625 81.69,25.915 C82.77,25.205 83.73,24.17 84.57,22.81 C85.39,24.17 86.34,25.205 87.42,25.915 C88.5,26.625 89.58,27.02 90.66,27.1 L90.66,27.1 Z M123.45,28 L123.45,18.37 L125.7,18.37 L125.7,13.87 L123.45,13.87 L123.45,5.2 L117.81,5.2 L117.81,28 L123.45,28 Z M115.8,27.1 L115.8,22.6 L108.09,22.6 L108.09,10 L115.2,10 L115.2,5.5 L102.45,5.5 L102.45,27.1 L115.8,27.1 Z" id="삽시다" fill="#FF7300" fill-rule="nonzero"></path>
            </g>
        </g>
    </g>
</svg>